<svg width="100" height="100" viewBox="0 0 100 100" fill="none" xmlns="http://www.w3.org/2000/svg">
<path d="M62.4999 18.75C62.4999 26.9563 60.5999 34.425 57.4999 40C56.1873 39.0114 54.6918 38.2925 53.0999 37.8848C51.508 37.4772 49.8511 37.3889 48.2249 37.625C46.4749 31.4875 42.5374 24.875 36.7374 19.0688C35.7527 18.0825 34.7289 17.1359 33.6686 16.2313C38.7596 13.767 44.3438 12.4912 49.9999 12.5C54.3186 12.5 58.4686 13.2313 62.3311 14.575C62.4436 15.9438 62.4999 17.3375 62.4999 18.75ZM62.4999 50C62.4999 50.4563 62.4749 50.9125 62.4249 51.3563C68.7874 51.2375 76.1749 49.15 83.2436 45.0688C84.4609 44.3648 85.6493 43.6121 86.8061 42.8125C84.9031 33.07 79.2173 24.4784 70.9936 18.9188C70.7401 20.2627 70.4379 21.5969 70.0874 22.9188C67.9624 30.85 64.1874 37.5813 59.7374 42.1625C61.4686 44.3063 62.4999 47.0375 62.4999 50ZM61.6436 54.55C61.0405 56.089 60.1393 57.4936 58.9916 58.6831C57.8439 59.8726 56.4725 60.8236 54.9561 61.4813C58.2374 66.9188 63.7374 72.2625 70.7999 76.3375C72.0499 77.0625 73.3124 77.725 74.5811 78.3188C78.3068 75.0923 81.3584 71.1615 83.5604 66.7522C85.7624 62.3428 87.0714 57.5418 87.4124 52.625C86.1124 53.0813 84.7811 53.5 83.4061 53.8688C75.5061 55.9875 67.8249 56.0938 61.6436 54.5563V54.55ZM49.9999 62.5C47.1874 62.5 44.5874 61.5688 42.4999 60C39.4124 65.5625 37.5249 73.0125 37.5249 81.1938C37.5249 82.6313 37.5874 84.05 37.6936 85.4313C41.6511 86.8045 45.8109 87.5038 49.9999 87.5C55.8749 87.5 61.4374 86.15 66.3936 83.7375C65.32 82.8256 64.2838 81.8707 63.2874 80.875C57.5061 75.0875 53.5686 68.4938 51.8124 62.375C51.2249 62.4563 50.6186 62.5 49.9999 62.5V62.5ZM37.4999 50C37.4999 49.5 37.5311 49 37.5874 48.5063C31.2124 48.6125 23.8061 50.7 16.7124 54.8C15.4994 55.5001 14.3152 56.2486 13.1624 57.0438C14.0883 61.8836 15.9586 66.4935 18.6664 70.6104C21.3742 74.7273 24.8664 78.2704 28.9436 81.0375C29.1974 79.6653 29.506 78.3038 29.8686 76.9563C31.9936 69.0375 35.7436 62.3188 40.1811 57.7375C38.4387 55.5355 37.4936 52.8081 37.4999 50ZM16.5811 46.05C24.4999 43.925 32.1936 43.8313 38.3811 45.3813C39.6061 42.2938 42.0249 39.8188 45.0686 38.5063C41.7936 33.0438 36.2811 27.675 29.1874 23.5813C27.9764 22.8819 26.7379 22.2314 25.4749 21.6313C21.745 24.8505 18.6875 28.7747 16.4781 33.1786C14.2687 37.5824 12.9507 42.3793 12.5999 47.2938C13.8874 46.8313 15.2124 46.4188 16.5811 46.05V46.05ZM49.9999 56.25C51.6575 56.25 53.2472 55.5916 54.4193 54.4195C55.5914 53.2474 56.2499 51.6576 56.2499 50C56.2499 48.3424 55.5914 46.7527 54.4193 45.5806C53.2472 44.4085 51.6575 43.75 49.9999 43.75C48.3423 43.75 46.7525 44.4085 45.5804 45.5806C44.4083 46.7527 43.7499 48.3424 43.7499 50C43.7499 51.6576 44.4083 53.2474 45.5804 54.4195C46.7525 55.5916 48.3423 56.25 49.9999 56.25Z" fill="#073C78"/>
<path d="M50 93.75C38.3968 93.75 27.2688 89.1406 19.0641 80.9359C10.8594 72.7312 6.25 61.6032 6.25 50C6.25 38.3968 10.8594 27.2688 19.0641 19.0641C27.2688 10.8594 38.3968 6.25 50 6.25C61.6032 6.25 72.7312 10.8594 80.9359 19.0641C89.1406 27.2688 93.75 38.3968 93.75 50C93.75 61.6032 89.1406 72.7312 80.9359 80.9359C72.7312 89.1406 61.6032 93.75 50 93.75ZM50 100C63.2608 100 75.9785 94.7322 85.3553 85.3553C94.7322 75.9785 100 63.2608 100 50C100 36.7392 94.7322 24.0215 85.3553 14.6447C75.9785 5.26784 63.2608 0 50 0C36.7392 0 24.0215 5.26784 14.6447 14.6447C5.26784 24.0215 0 36.7392 0 50C0 63.2608 5.26784 75.9785 14.6447 85.3553C24.0215 94.7322 36.7392 100 50 100V100Z" fill="#073C78"/>
</svg>
