<svg width="279" height="540" viewBox="0 0 279 540" fill="none" xmlns="http://www.w3.org/2000/svg">
<g clip-path="url(#clip0_536_520)">
<path d="M173.516 244.135L100.516 235.135L104.516 171.135H173.516V244.135Z" fill="#FFB6B6"/>
<path d="M182.494 79.2691L111.219 80.1601C109.881 80.1585 108.598 79.6264 107.653 78.6804C106.707 77.7344 106.174 76.4519 106.173 75.1141V51.5641C106.173 41.6007 110.131 32.0454 117.176 25.0002C124.221 17.955 133.776 13.9971 143.74 13.9971C153.703 13.9971 163.259 17.955 170.304 25.0002C177.349 32.0454 181.307 41.6007 181.307 51.5641L187.541 74.2231C187.539 75.5609 187.007 76.8434 186.061 77.7894C185.115 78.7354 183.833 79.2675 182.495 79.2691H182.494Z" fill="#2F2E41"/>
<path d="M217.389 288.657C216.203 287.584 215.266 286.263 214.646 284.789C214.025 283.314 213.736 281.721 213.797 280.123C213.859 278.524 214.27 276.959 215.002 275.536C215.735 274.114 216.77 272.869 218.035 271.89L205.635 235.034L225.172 240.197L233.955 274.404C235.467 276.638 236.106 279.351 235.749 282.025C235.392 284.699 234.065 287.149 232.02 288.909C229.975 290.669 227.354 291.615 224.656 291.569C221.959 291.522 219.372 290.486 217.389 288.657V288.657Z" fill="#FFB6B6"/>
<path d="M132.878 525.732L118.248 523.359L120.442 465.801L142.034 469.301L132.878 525.732Z" fill="#FFB6B6"/>
<path d="M205.791 495.218L192.559 501.894L157.511 451.034L177.04 441.181L205.791 495.218Z" fill="#FFB6B6"/>
<path d="M143.429 79.9158C157.797 79.9158 169.445 68.268 169.445 53.8998C169.445 39.5315 157.797 27.8838 143.429 27.8838C129.061 27.8838 117.413 39.5315 117.413 53.8998C117.413 68.268 129.061 79.9158 143.429 79.9158Z" fill="#FFB8B8"/>
<path d="M164.028 476.725L103.099 321.361C81.2929 261.796 100.776 220.743 100.976 220.336L101.076 220.136L101.284 220.06C103.786 229.798 160.516 229.135 173.516 214.135C181.104 220.509 191.203 235.517 193.367 253.451C195.628 272.69 193.913 292.19 188.329 310.74L164.329 392.1L194.022 458.991L164.028 476.725Z" fill="#2F2E41"/>
<path d="M134.647 380.355L112.647 491.911L141.947 497.436L160.382 400.874L134.647 380.355Z" fill="#2F2E41"/>
<path d="M102.516 190.135C107.203 191.387 153.535 210.478 175.516 191.135L192.765 105.971L172.1 99.4525L164.888 90.6829C164.107 89.7319 163.122 88.969 162.006 88.451C160.89 87.933 159.671 87.6731 158.441 87.6908L132.805 88.0336C131.671 88.0501 130.552 88.3008 129.52 88.7701C128.487 89.2394 127.563 89.9171 126.805 90.7606L118.593 99.9183L100.044 104.235L102.516 190.135Z" fill="#6C63FF"/>
<path d="M184.9 112.614L190.516 105.135C190.516 105.135 200.806 107.839 206.034 122.584C211.262 137.329 232.682 255.136 232.682 255.136L209.615 265.846L178.378 161.73L184.9 112.614Z" fill="#6C63FF"/>
<path d="M0.0566173 252.909C0.27456 251.324 0.837345 249.806 1.7053 248.462C2.57325 247.119 3.72527 245.981 5.08024 245.131C6.4352 244.281 7.96012 243.738 9.54765 243.54C11.1352 243.343 12.7467 243.496 14.2686 243.989L37.7136 212.965L44.4656 232.011L21.1656 258.552C20.1716 261.058 18.2917 263.112 15.883 264.324C13.4742 265.535 10.7045 265.82 8.09971 265.123C5.49494 264.427 3.23665 262.798 1.7537 260.547C0.270752 258.295 -0.333516 255.577 0.0556408 252.909H0.0566173Z" fill="#FFB6B6"/>
<path d="M108.285 110.963L100.516 104.135C100.516 104.135 92.3786 106.188 87.1506 120.933C81.9227 135.678 15.1926 234.533 15.1926 234.533L38.2596 245.243L114.808 160.075L108.285 110.963Z" fill="#6C63FF"/>
<path d="M170.539 52.1839H134.176C133.493 52.1831 132.833 51.9333 132.321 51.4812C131.809 51.0291 131.479 50.4057 131.394 49.7279L130.923 45.9619C130.877 45.6001 130.715 45.2629 130.461 45.0013C130.207 44.7396 129.875 44.5676 129.514 44.5112C129.154 44.4548 128.785 44.517 128.463 44.6885C128.142 44.8599 127.884 45.1314 127.73 45.4619L125.345 50.5659C125.118 51.0483 124.759 51.4564 124.309 51.7427C123.86 52.0289 123.338 52.1816 122.805 52.1829H117.282C116.539 52.184 115.827 51.89 115.301 51.3657C114.775 50.8414 114.479 50.1296 114.478 49.387C114.478 49.2951 114.482 49.2034 114.491 49.1118L116.669 26.3629C116.715 25.8764 116.887 25.4104 117.168 25.0102C117.448 24.6101 117.828 24.2895 118.269 24.0798C134.922 16.3058 151.81 16.3158 168.463 24.1098C168.885 24.3085 169.252 24.6093 169.528 24.985C169.805 25.3608 169.984 25.7996 170.049 26.2619L173.312 48.9808C173.369 49.3785 173.34 49.7839 173.227 50.1695C173.114 50.555 172.919 50.9117 172.656 51.2153C172.393 51.5189 172.067 51.7622 171.702 51.9288C171.336 52.0954 170.939 52.1814 170.537 52.1808L170.539 52.1839Z" fill="#2F2E41"/>
<path d="M140.39 539.135H130.874L129.175 530.15L124.824 539.135H99.5839C98.374 539.135 97.1957 538.749 96.2212 538.032C95.2466 537.315 94.5268 536.305 94.1668 535.15C93.8067 533.995 93.8253 532.755 94.2198 531.611C94.6143 530.467 95.3642 529.48 96.3598 528.792L116.516 514.872V505.788L137.717 507.053L140.39 539.135Z" fill="#2F2E41"/>
<path d="M224.718 516.861L216.724 522.024L210.423 515.397L211.642 525.305L190.438 538.997C189.421 539.654 188.222 539.968 187.014 539.894C185.806 539.821 184.654 539.363 183.725 538.588C182.796 537.813 182.139 536.761 181.85 535.586C181.561 534.411 181.655 533.175 182.118 532.057L191.5 509.429L186.573 501.798L205.07 491.36L224.718 516.861Z" fill="#2F2E41"/>
<path d="M279 538H0V540H279V538Z" fill="#CCCCCC"/>
</g>
<defs>
<clipPath id="clip0_536_520">
<rect width="279" height="540" fill="white"/>
</clipPath>
</defs>
</svg>
