<svg width="273" height="473" viewBox="0 0 273 473" fill="none" xmlns="http://www.w3.org/2000/svg">
<g clip-path="url(#clip0_468_605)">
<path d="M58.6692 418.523L57.7732 396.089C48.4328 390.529 38.0148 387.592 27.4238 387.534C42.0001 400.804 40.1785 426.385 50.0609 444.23C53.1814 449.77 57.3814 454.457 62.3496 457.943C67.3178 461.429 72.9269 463.626 78.7611 464.37L90.9591 472.687C92.6328 462.296 92.2638 451.625 89.8774 441.409C87.4911 431.192 83.144 421.674 77.1359 413.508C73.7246 408.964 69.813 404.917 65.4935 401.462C62.5721 410.04 58.6692 418.523 58.6692 418.523Z" fill="#F2F2F2"/>
<path d="M148.026 194.42C147.638 194.422 147.25 194.462 146.868 194.542L140.508 149.71L146.879 106.551C147.28 103.836 146.741 101.053 145.372 98.7629C144.002 96.4728 141.904 94.8462 139.5 94.2111C137.096 93.5761 134.565 93.9799 132.418 95.341C130.27 96.7022 128.667 98.9194 127.93 101.546V101.546C125.541 110.056 124.359 118.929 124.427 127.845L124.649 157.279L141.603 202.482C141.751 203.861 142.254 205.163 143.051 206.231C143.848 207.3 144.905 208.089 146.096 208.503C147.286 208.918 148.559 208.941 149.76 208.569C150.962 208.198 152.042 207.447 152.869 206.408C153.697 205.369 154.237 204.086 154.426 202.713C154.614 201.341 154.442 199.936 153.93 198.67C153.418 197.403 152.589 196.328 151.542 195.574C150.494 194.82 149.274 194.419 148.026 194.42L148.026 194.42Z" fill="#FFB8B8"/>
<path d="M121.027 108.294C121.026 106.048 121.422 103.823 122.193 101.748C122.963 99.6719 124.094 97.7858 125.52 96.197C126.945 94.6082 128.638 93.3478 130.502 92.4879C132.365 91.6279 134.362 91.1853 136.379 91.1853C138.396 91.1853 140.394 91.6279 142.257 92.4879C144.12 93.3478 145.813 94.6082 147.239 96.197C148.665 97.7858 149.795 99.6719 150.566 101.748C151.337 103.823 151.733 106.048 151.731 108.294L141.752 147.491L124.424 146.532L121.027 108.294Z" fill="#2F2E41"/>
<path d="M157.44 452.125L167.348 452.124L172.061 409.567L157.438 409.568L157.44 452.125Z" fill="#FFB8B8"/>
<path d="M184.635 464.561L169.746 453.111V445.641L168.057 445.751L157.443 446.461L154.084 446.681L152.171 472.221L152.108 473.071H159.14L159.283 472.221L160.397 465.681L163.244 472.221L163.612 473.071H182.255C183.365 473.068 184.429 472.577 185.215 471.704C186.001 470.831 186.444 469.647 186.449 468.411C186.449 467.653 186.285 466.907 185.969 466.237C185.652 465.566 185.195 464.991 184.635 464.561V464.561Z" fill="#2F2E41"/>
<path d="M98.0166 426.692L105.89 433.391L132.84 402.764L121.221 392.877L98.0166 426.692Z" fill="#FFB8B8"/>
<path d="M112.844 454.961L107.257 435.797L111.33 429.861L109.929 428.807L101.108 422.194L98.319 420.098L82.8732 439.098L82.3599 439.731L87.9469 444.485L88.5244 443.907L92.9753 439.463L91.6712 446.585L91.5003 447.509L106.313 460.114C107.197 460.863 108.31 461.192 109.41 461.029C110.511 460.867 111.509 460.226 112.186 459.247C112.6 458.645 112.876 457.941 112.99 457.194C113.105 456.448 113.055 455.681 112.844 454.961V454.961Z" fill="#2F2E41"/>
<path d="M138.212 242.85L148.117 276.7C148.117 276.7 151.637 312.82 155.4 320.82C156.103 322.446 156.587 324.177 156.837 325.96C156.944 326.56 157.025 327.19 157.097 327.82C157.241 329.07 157.34 330.36 157.402 331.66C157.591 337.183 157.377 342.715 156.765 348.2C154.987 349.92 153.685 365.43 152.778 384.56C152.679 386.55 152.586 388.573 152.499 390.63C152.32 394.78 152.158 399.04 152.014 403.32C150.982 433.06 151.556 426.7 151.556 426.7C176.665 431.83 175.632 422.58 175.632 422.58C175.632 422.58 184.253 379.69 186.481 360.15C186.75 357.87 186.912 356.41 186.948 355.99C187.046 353.923 187.387 351.879 187.962 349.91C188.449 349.137 188.885 348.324 189.264 347.48C189.266 347.48 189.267 347.48 189.268 347.479C189.269 347.479 189.27 347.478 189.271 347.477C189.272 347.476 189.272 347.475 189.273 347.474C189.273 347.472 189.273 347.471 189.273 347.47C191.05 343.175 192.05 338.534 192.219 333.81C192.346 331.763 192.352 329.708 192.237 327.66C192.095 315.673 193.007 303.699 194.958 291.91C196.53 283.86 195.506 268.3 194.114 254.97C193.548 249.47 192.91 244.35 192.381 240.3C192.354 240.13 192.336 239.96 192.318 239.79C191.635 234.7 191.132 231.42 191.132 231.42C191.132 231.42 193.422 222.68 191.725 219.45C190.944 218 191.052 214.58 191.384 211.2C191.797 207.08 192.569 203.24 192.569 203.24L145.935 194.09C144.956 195.9 144.085 197.65 143.232 199.34C127.812 231.07 138.212 242.85 138.212 242.85Z" fill="#073C78"/>
<path d="M124.883 98.0474C125.402 96.454 126.272 95.0315 127.414 93.911C128.556 92.7906 129.933 92.0081 131.418 91.6358C133.619 90.9389 135.91 90.66 138.194 90.811C144.881 91.1043 149.594 77.0944 156.216 78.1745C156.216 78.1745 162.448 75.6978 167.324 80.2362C171.754 84.359 174.808 95.5722 175.944 94.9343C176.482 94.7992 177.041 94.7996 177.578 94.9354C182.156 95.6519 186.322 98.2668 189.242 102.257C192.163 106.247 193.623 111.318 193.33 116.455L192.848 125.55C192.848 125.55 196.254 131.26 191.311 141.342L194.181 176.905C194.181 176.905 198.962 226.449 191.778 233.5C184.595 240.551 158.134 209.809 158.134 209.809C158.134 209.809 137.805 206.201 139.009 202.016C140.212 197.831 146.526 186.224 146.526 186.224C146.672 185.576 146.655 184.896 146.475 184.259C146.295 183.622 145.96 183.053 145.507 182.616C143.971 181.523 145.692 179.049 145.822 178.822C145.674 178.987 144.507 180.348 143.619 177.482C142.73 174.617 145.47 171.009 145.47 171.009L137.731 152.454L131.64 137.796L130.9 136.105L125.771 124.313L125.652 124.039C122.945 117.753 122.346 110.597 123.963 103.863C124.498 101.978 124.807 100.022 124.883 98.0474Z" fill="#E4D340"/>
<path d="M108.783 401.3C127.202 420.98 130.911 412.61 130.911 412.61C130.911 412.61 140.87 399.84 152.778 384.56C157.052 379.08 161.569 373.28 165.97 367.63C172.049 359.82 177.895 352.3 182.547 346.32C187.693 339.69 191.357 334.95 192.219 333.81C192.346 331.763 192.352 329.708 192.237 327.66C192.095 315.673 193.007 303.699 194.958 291.91C196.529 283.86 195.506 268.3 194.114 254.97C192.03 259.8 189.624 265.53 187.63 270.82C185.403 276.71 183.67 282.04 183.4 284.94C182.547 293.87 171.007 308.63 171.007 308.63L170.873 308.66C168.978 309.22 163.635 316.14 156.837 325.96C138.265 352.78 108.783 401.3 108.783 401.3Z" fill="#073C78"/>
<path d="M259.729 88.6154C259.775 89.0453 259.856 89.4697 259.97 89.8835L220.694 102.016L181.463 99.8738C178.995 99.739 176.573 100.651 174.686 102.427C172.798 104.202 171.585 106.709 171.292 109.441C170.999 112.172 171.647 114.927 173.105 117.148C174.564 119.368 176.724 120.891 179.151 121.407V121.407C187.016 123.082 195.067 123.381 203.014 122.293L229.25 118.701L267.653 94.8055C268.867 94.4847 269.971 93.7803 270.833 92.777C271.696 91.7738 272.28 90.5144 272.514 89.1504C272.749 87.7864 272.625 86.376 272.157 85.0887C271.688 83.8015 270.896 82.6924 269.875 81.8948C268.854 81.0972 267.648 80.6451 266.402 80.593C265.155 80.5408 263.922 80.8908 262.85 81.6008C261.778 82.3108 260.914 83.3506 260.36 84.5951C259.806 85.8395 259.587 87.2357 259.729 88.6154L259.729 88.6154Z" fill="#FFB8B8"/>
<path d="M185.956 128.276C183.953 128.533 181.923 128.347 179.984 127.73C178.045 127.112 176.235 126.076 174.655 124.679C173.076 123.283 171.76 121.553 170.781 119.59C169.802 117.626 169.18 115.467 168.951 113.236C168.722 111.005 168.89 108.746 169.445 106.587C170 104.428 170.932 102.412 172.187 100.654C173.442 98.8961 174.995 97.4309 176.759 96.3419C178.523 95.253 180.462 94.5616 182.466 94.3074L218.572 100.891L219.686 120.172L185.956 128.276Z" fill="#2F2E41"/>
<path d="M179.664 63.1839C177.436 67.7203 173.888 71.2765 169.602 73.267C165.317 75.2575 160.551 75.5634 156.088 74.1345C151.626 72.7056 147.734 69.6271 145.053 65.4058C142.371 61.1846 141.061 56.0724 141.338 50.9112C141.614 45.7499 143.461 40.8474 146.573 37.011C149.686 33.1746 153.88 30.633 158.463 29.8049C163.046 28.9768 167.746 29.9115 171.788 32.455C175.831 34.9986 178.975 38.9994 180.703 43.7985C180.796 44.0589 180.88 44.3193 180.964 44.5902C181.941 47.6155 182.33 50.8372 182.106 54.0424C181.882 57.2476 181.05 60.3634 179.664 63.1839Z" fill="#FFB6B6"/>
<path d="M182.602 44.5902C181.722 41.8506 182.106 43.2777 181.217 40.5485C181.503 41.8931 181.415 43.3027 180.965 44.5902H156.634V28.8402C163.762 25.6943 170.731 23.0173 174.94 28.8402C178.692 28.8404 182.289 30.4998 184.942 33.4535C187.594 36.4071 189.084 40.4131 189.084 44.5902H182.602Z" fill="#2F2E41"/>
<path d="M173.977 88.3715C173.958 88.0798 173.93 87.7777 173.893 87.4861C173.566 85.3463 173.036 83.2513 172.312 81.2361C171.61 79.0382 170.899 76.8298 170.188 74.6319C171.104 78.6216 170.825 82.835 169.393 86.6319C165.287 83.0694 167.878 74.9236 162.508 74.9236C149.599 74.9236 136.316 63.2673 136.316 48.8818C136.316 34.5068 141.854 23.7568 154.763 23.7568C167.681 23.7568 178.158 30.3401 178.411 44.7152C162.508 48.8819 176.98 86.9132 173.977 88.3715Z" fill="#2F2E41"/>
<path d="M137.929 46.6786C146.195 46.6786 152.896 39.2167 152.896 30.0119C152.896 20.8071 146.195 13.3452 137.929 13.3452C129.663 13.3452 122.962 20.8071 122.962 30.0119C122.962 39.2167 129.663 46.6786 137.929 46.6786Z" fill="#2F2E41"/>
<path d="M4.73224e-06 472.261C-0.00041381 472.418 0.0269351 472.573 0.0804949 472.717C0.134055 472.862 0.21275 472.993 0.312072 473.104C0.411395 473.215 0.529369 473.302 0.659219 473.362C0.789069 473.421 0.928226 473.452 1.06869 473.451H252.777C253.06 473.451 253.332 473.326 253.532 473.103C253.733 472.88 253.845 472.577 253.845 472.261C253.845 471.946 253.733 471.643 253.532 471.42C253.332 471.197 253.06 471.071 252.777 471.071H1.06869C0.928228 471.071 0.789094 471.101 0.659246 471.161C0.529398 471.221 0.411421 471.308 0.3121 471.419C0.212778 471.529 0.134057 471.661 0.0804949 471.805C0.0269334 471.95 -0.000409043 472.105 4.73224e-06 472.261Z" fill="#CCCCCC"/>
</g>
<defs>
<clipPath id="clip0_468_605">
<rect width="273" height="473" fill="white"/>
</clipPath>
</defs>
</svg>
