<svg width="90" height="88" viewBox="0 0 90 88" fill="#0075db" xmlns="http://www.w3.org/2000/svg">
<path d="M83 0.998918H44L6.23611 0.998226C0.125 0.998226 0.625 -1.00083 0.625 5.11028L0.625 82.8881C0.625 88.9992 3.38889 87.5 9.5 87.5H44H83C89.1111 87.5 89.125 88.9992 89.125 82.8881V5.11028C89.125 -1.00083 89.1111 0.998918 83 0.998918ZM83 81.5H46H7.5V44.5V6.5H44H83V81.5Z" fill="#0075db"/>
<path d="M45.3333 77.6667C63.7222 77.6667 78.6667 62.7222 78.6667 44.3333C78.6667 25.9444 63.7222 11 45.3333 11C26.9444 11 12 25.9444 12 44.3333C12 62.7222 26.9444 77.6667 45.3333 77.6667ZM64.4444 33.2222C65.8889 35.7222 66.8889 38.5556 67.2778 41.5556H23.3889C23.7778 38.5556 24.7222 35.7222 26.2222 33.2222H64.4444ZM67.2778 47.1111C66.8889 50.1111 65.9444 52.9444 64.4444 55.4444H26.2222C24.7778 52.9444 23.7778 50.1111 23.3889 47.1111H67.2778ZM30.7778 61H59.8889C56 64.3889 50.9444 66.5556 45.3333 66.5556C39.7222 66.5556 34.7222 64.3889 30.7778 61ZM59.8889 27.6667H30.7778C34.6667 24.2778 39.7222 22.1111 45.3333 22.1111C50.9444 22.1111 55.9444 24.2778 59.8889 27.6667Z" fill="#0075db"/>
</svg>
