<svg width="120" height="122" viewBox="0 0 120 122" fill="none" xmlns="http://www.w3.org/2000/svg">
<path d="M88.8889 0H11.1111C5 0 0 5 0 11.1111V88.8889C0 95 5 100 11.1111 100H88.8889C95 100 100 95 100 88.8889V11.1111C100 5 95 0 88.8889 0ZM88.8889 88.8889H11.1111V11.1111H88.8889V88.8889Z" fill="#1565C0"/>
<path d="M49.9998 83.3334C68.3887 83.3334 83.3332 68.3889 83.3332 50C83.3332 31.6111 68.3887 16.6667 49.9998 16.6667C31.6109 16.6667 16.6665 31.6111 16.6665 50C16.6665 68.3889 31.6109 83.3334 49.9998 83.3334ZM69.1109 38.8889C70.5554 41.3889 71.5554 44.2222 71.9443 47.2222H28.0554C28.4443 44.2222 29.3887 41.3889 30.8887 38.8889H69.1109V38.8889ZM71.9443 52.7778C71.5554 55.7778 70.6109 58.6111 69.1109 61.1111H30.8887C29.4443 58.6111 28.4443 55.7778 28.0554 52.7778H71.9443V52.7778ZM35.4443 66.6667H64.5554C60.6665 70.0556 55.611 72.2222 49.9998 72.2222C44.3887 72.2222 39.3887 70.0556 35.4443 66.6667V66.6667ZM64.5554 33.3334H35.4443C39.3332 29.9445 44.3887 27.7778 49.9998 27.7778C55.611 27.7778 60.6109 29.9445 64.5554 33.3334Z" fill="#1565C0"/>
<circle cx="95" cy="97" r="25" fill="#D1E5FB"/>
<path d="M82 97L92.125 106L109 88" stroke="#1565C0" stroke-width="7.83" stroke-linecap="round" stroke-linejoin="round"/>
</svg>
