<svg width="123" height="122" viewBox="0 0 123 122" fill="none" xmlns="http://www.w3.org/2000/svg">
<path fill-rule="evenodd" clip-rule="evenodd" d="M56.0222 0L106.418 45.9588L100.792 51.5848L92.7892 44.3265V96.038L88.8273 100H65.0555L61.0935 96.038V68.3043H45.2456V96.038L41.2837 100H17.5119L13.5499 96.038V44.3899L5.62599 51.5848L0 45.9588L50.317 0H56.0222ZM21.4739 37.187V92.0761H37.3217V64.3423L41.2837 60.3803H65.0555L69.0174 64.3423V92.0761H84.8653V37.1395L53.1696 8.39937L21.4739 37.187Z" fill="#1565C0"/>
<circle cx="98" cy="97" r="25" fill="#D1E5FB"/>
<path d="M103.95 81.125C103.95 85.2281 103 88.9625 101.45 91.75C100.794 91.2557 100.046 90.8962 99.25 90.6924C98.4541 90.4886 97.6256 90.4444 96.8125 90.5625C95.9375 87.4938 93.9687 84.1875 91.0687 81.2844C90.5764 80.7912 90.0645 80.3179 89.5344 79.8656C92.0799 78.6335 94.872 77.9956 97.7 78C99.8594 78 101.934 78.3656 103.866 79.0375C103.922 79.7219 103.95 80.4188 103.95 81.125ZM103.95 96.75C103.95 96.9781 103.938 97.2063 103.913 97.4281C107.094 97.3688 110.788 96.325 114.322 94.2844C114.931 93.9324 115.525 93.556 116.103 93.1563C115.152 88.285 112.309 83.9892 108.197 81.2094C108.07 81.8813 107.919 82.5484 107.744 83.2094C106.681 87.175 104.794 90.5406 102.569 92.8313C103.434 93.9031 103.95 95.2688 103.95 96.75ZM103.522 99.025C103.22 99.7945 102.77 100.497 102.196 101.092C101.622 101.686 100.936 102.162 100.178 102.491C101.819 105.209 104.569 107.881 108.1 109.919C108.725 110.281 109.356 110.613 109.991 110.909C111.853 109.296 113.379 107.331 114.48 105.126C115.581 102.921 116.236 100.521 116.406 98.0625C115.756 98.2906 115.091 98.5 114.403 98.6844C110.453 99.7438 106.613 99.7969 103.522 99.0281V99.025ZM97.7 103C96.2938 103 94.9938 102.534 93.95 101.75C92.4063 104.531 91.4625 108.256 91.4625 112.347C91.4625 113.066 91.4938 113.775 91.5469 114.466C93.5256 115.152 95.6055 115.502 97.7 115.5C100.638 115.5 103.419 114.825 105.897 113.619C105.36 113.163 104.842 112.685 104.344 112.188C101.453 109.294 99.4844 105.997 98.6063 102.938C98.3125 102.978 98.0094 103 97.7 103V103ZM91.45 96.75C91.45 96.5 91.4656 96.25 91.4937 96.0031C88.3062 96.0563 84.6031 97.1 81.0562 99.15C80.4498 99.5001 79.8577 99.8743 79.2812 100.272C79.7442 102.692 80.6794 104.997 82.0333 107.055C83.3872 109.114 85.1333 110.885 87.1719 112.269C87.2988 111.583 87.4531 110.902 87.6344 110.228C88.6969 106.269 90.5719 102.909 92.7906 100.619C91.9194 99.5177 91.4469 98.154 91.45 96.75ZM80.9906 94.775C84.95 93.7125 88.7969 93.6656 91.8906 94.4406C92.5031 92.8969 93.7125 91.6594 95.2344 91.0031C93.5969 88.2719 90.8406 85.5875 87.2938 83.5406C86.6883 83.1909 86.069 82.8657 85.4375 82.5656C83.5726 84.1753 82.0438 86.1373 80.9391 88.3393C79.8344 90.5412 79.1754 92.9396 79 95.3969C79.6438 95.1656 80.3063 94.9594 80.9906 94.775V94.775ZM97.7 99.875C98.5288 99.875 99.3237 99.5458 99.9097 98.9597C100.496 98.3737 100.825 97.5788 100.825 96.75C100.825 95.9212 100.496 95.1264 99.9097 94.5403C99.3237 93.9543 98.5288 93.625 97.7 93.625C96.8712 93.625 96.0763 93.9543 95.4903 94.5403C94.9042 95.1264 94.575 95.9212 94.575 96.75C94.575 97.5788 94.9042 98.3737 95.4903 98.9597C96.0763 99.5458 96.8712 99.875 97.7 99.875Z" fill="#1565C0"/>
</svg>
