<svg width="102" height="99" viewBox="0 0 102 99" fill="none" xmlns="http://www.w3.org/2000/svg">
<path fill-rule="evenodd" clip-rule="evenodd" d="M54.0222 0.5L101.5 44.5L97 48.5L93 44.5V69.5V95.5L86.8273 98.5H75H63.0555L59.0935 96.538V79.5H43.2457V96.538L40.5 98.5H27.5H15.5119L10 95.5V45.5L6.5 48.5L0 44.5L48.317 0.5H54.0222ZM17 41V67.5V90.5L27.5 91.5H37V86V74H40.5H51.1696H60.5H65.5V83.5V93H75H85.5V81V65.5V41L51.1696 8L35 23L17 41Z" fill="#0075db"/>
<path d="M55.345 34.924C55.345 38.7632 54.4561 42.2573 53.0058 44.8655C52.3918 44.403 51.6922 44.0666 50.9474 43.8759C50.2026 43.6852 49.4275 43.6439 48.6667 43.7544C47.848 40.8831 46.0058 37.7895 43.2924 35.0731C42.8317 34.6117 42.3528 34.1688 41.8567 33.7456C44.2385 32.5928 46.851 31.9959 49.4971 32C51.5175 32 53.4591 32.3421 55.2661 32.9708C55.3187 33.6111 55.345 34.2632 55.345 34.924ZM55.345 49.5439C55.345 49.7573 55.3333 49.9708 55.3099 50.1784C58.2866 50.1228 61.7427 49.1462 65.0497 47.2369C65.6192 46.9075 66.1752 46.5554 66.7164 46.1813C65.8261 41.6234 63.1661 37.6039 59.3187 35.0029C59.2001 35.6317 59.0587 36.2559 58.8947 36.8743C57.9006 40.5848 56.1345 43.7339 54.0526 45.8772C54.8626 46.8801 55.345 48.1579 55.345 49.5439ZM54.9444 51.6725C54.6623 52.3925 54.2407 53.0496 53.7037 53.6061C53.1668 54.1626 52.5252 54.6075 51.8158 54.9152C53.3509 57.4591 55.924 59.9591 59.2281 61.8655C59.8129 62.2047 60.4035 62.5146 60.9971 62.7924C62.7401 61.283 64.1677 59.444 65.1979 57.3811C66.2281 55.3183 66.8405 53.0722 67 50.772C66.3918 50.9854 65.769 51.1813 65.1257 51.3538C61.4298 52.3451 57.8363 52.3948 54.9444 51.6755V51.6725ZM49.4971 55.3918C48.1813 55.3918 46.9649 54.9562 45.9883 54.2222C44.5439 56.8246 43.6608 60.31 43.6608 64.1375C43.6608 64.81 43.6901 65.4737 43.7398 66.1199C45.5912 66.7623 47.5373 67.0895 49.4971 67.0877C52.2456 67.0877 54.848 66.4562 57.1667 65.3275C56.6644 64.9009 56.1796 64.4541 55.7135 63.9883C53.0088 61.2807 51.1667 58.1959 50.345 55.3334C50.0702 55.3714 49.7866 55.3918 49.4971 55.3918V55.3918ZM43.6491 49.5439C43.6491 49.31 43.6637 49.076 43.6901 48.8451C40.7076 48.8948 37.2427 49.8714 33.924 51.7895C33.3565 52.117 32.8025 52.4672 32.2632 52.8392C32.6964 55.1034 33.5714 57.2601 34.8381 59.1861C36.1049 61.1122 37.7387 62.7698 39.6462 64.0644C39.7649 63.4224 39.9093 62.7854 40.0789 62.155C41.0731 58.4503 42.8275 55.307 44.9035 53.1638C44.0883 52.1336 43.6462 50.8576 43.6491 49.5439ZM33.8626 47.6959C37.5673 46.7018 41.1667 46.6579 44.0614 47.3831C44.6345 45.9386 45.7661 44.7807 47.1901 44.1667C45.6579 41.6111 43.0789 39.0994 39.7602 37.1842C39.1937 36.857 38.6143 36.5527 38.0234 36.272C36.2784 37.778 34.848 39.6139 33.8144 41.6742C32.7807 43.7345 32.1641 45.9786 32 48.2778C32.6023 48.0614 33.2222 47.8684 33.8626 47.6959V47.6959ZM49.4971 52.4679C50.2726 52.4679 51.0163 52.1598 51.5646 51.6114C52.113 51.0631 52.4211 50.3194 52.4211 49.5439C52.4211 48.7684 52.113 48.0247 51.5646 47.4763C51.0163 46.928 50.2726 46.6199 49.4971 46.6199C48.7216 46.6199 47.9779 46.928 47.4295 47.4763C46.8812 48.0247 46.5731 48.7684 46.5731 49.5439C46.5731 50.3194 46.8812 51.0631 47.4295 51.6114C47.9779 52.1598 48.7216 52.4679 49.4971 52.4679Z" fill="#0075db"/>
</svg>
